<svg width="612" height="792" viewBox="0 0 612 792" fill="none" xmlns="http://www.w3.org/2000/svg">
<g clip-path="url(#clip0_1_9)">
<path d="M173 694.222C191.656 694.222 210.327 693.046 229 692.889C238.383 692.81 247.679 691.556 257.099 691.556C266.893 691.556 276.815 691.715 286.58 690.914C298.655 689.923 310.758 690.222 322.877 690.222C334.211 690.222 345.481 688.889 356.852 688.889C366.761 688.889 376.671 688.889 386.58 688.889C391.255 688.889 396.961 690.17 401.444 688.889" stroke="#E7E0E0" stroke-width="10" stroke-linecap="round"/>
<path d="M294.094 327.283C294.094 375.508 287.742 423.318 287.742 471.486C287.742 485.858 285.491 500.03 285.432 514.442C285.326 540.264 284.332 566.062 283.828 591.884C283.288 619.555 280.812 647.282 280.812 674.909" stroke="#E7E0E0" stroke-width="10" stroke-linecap="round"/>
<path d="M280.812 666.247V684.725" stroke="#E7E0E0" stroke-width="10" stroke-linecap="round"/>
<path d="M212.418 334.258C232.176 334.258 253.003 327.168 272.789 324.98C287.894 323.309 303.128 325.271 318.295 324.555C336.479 323.697 354.731 322.422 372.72 319.557C392.987 316.328 413.367 313.991 433.711 311.325C454.113 308.65 474.644 309.692 494.931 305.804C518.78 301.233 543.339 300.152 567.585 300.152" stroke="#E7E0E0" stroke-width="10" stroke-linecap="round"/>
</g>
<defs>
<clipPath id="clip0_1_9">
<rect width="612" height="792" fill="white"/>
</clipPath>
</defs>
</svg>
