<svg width="612" height="792" viewBox="0 0 612 792" fill="none" xmlns="http://www.w3.org/2000/svg">
<g clip-path="url(#clip0_2_2)">
<mask id="mask0_2_2" style="mask-type:luminance" maskUnits="userSpaceOnUse" x="0" y="0" width="612" height="792">
<path d="M612 0H0V792H612V0Z" fill="white"/>
</mask>
<g mask="url(#mask0_2_2)">
<mask id="mask1_2_2" style="mask-type:luminance" maskUnits="userSpaceOnUse" x="0" y="0" width="612" height="792">
<path d="M612 0H0V792H612V0Z" fill="white"/>
</mask>
<g mask="url(#mask1_2_2)">
<mask id="mask2_2_2" style="mask-type:luminance" maskUnits="userSpaceOnUse" x="0" y="0" width="612" height="792">
<path d="M612 0H0V792H612V0Z" fill="white"/>
</mask>
<g mask="url(#mask2_2_2)">
<mask id="mask3_2_2" style="mask-type:luminance" maskUnits="userSpaceOnUse" x="0" y="0" width="612" height="792">
<path d="M612 0H0V792H612V0Z" fill="white"/>
</mask>
<g mask="url(#mask3_2_2)">
<mask id="mask4_2_2" style="mask-type:luminance" maskUnits="userSpaceOnUse" x="0" y="0" width="612" height="792">
<path d="M612 0H0V792H612V0Z" fill="white"/>
</mask>
<g mask="url(#mask4_2_2)">
<mask id="mask5_2_2" style="mask-type:luminance" maskUnits="userSpaceOnUse" x="0" y="0" width="612" height="792">
<path d="M612 0H0V792H612V0Z" fill="white"/>
</mask>
<g mask="url(#mask5_2_2)">
<mask id="mask6_2_2" style="mask-type:luminance" maskUnits="userSpaceOnUse" x="0" y="0" width="612" height="792">
<path d="M612 0H0V792H612V0Z" fill="white"/>
</mask>
<g mask="url(#mask6_2_2)">
<mask id="mask7_2_2" style="mask-type:luminance" maskUnits="userSpaceOnUse" x="0" y="0" width="612" height="792">
<path d="M612 0H0V792H612V0Z" fill="white"/>
</mask>
<g mask="url(#mask7_2_2)">
<path d="M173 694.222C191.656 694.222 210.327 693.046 229 692.889C238.383 692.81 247.679 691.556 257.099 691.556C266.893 691.556 276.815 691.715 286.58 690.914C298.655 689.923 310.758 690.222 322.877 690.222C334.211 690.222 345.481 688.889 356.852 688.889C366.761 688.889 376.671 688.889 386.58 688.889C391.255 688.889 396.961 690.17 401.444 688.889" stroke="#E7E0E0" stroke-width="10" stroke-linecap="round"/>
<path d="M294.093 327.283C294.093 375.508 287.741 423.318 287.741 471.486C287.741 485.858 285.491 500.03 285.432 514.442C285.326 540.264 284.332 566.062 283.828 591.884C283.288 619.555 280.812 647.282 280.812 674.909" stroke="#E7E0E0" stroke-width="10" stroke-linecap="round"/>
<path d="M280.812 666.247V684.725" stroke="#E7E0E0" stroke-width="10" stroke-linecap="round"/>
<path d="M212.418 334.258C232.176 334.258 253.003 327.168 272.788 324.98C287.893 323.309 303.127 325.271 318.295 324.555C336.479 323.697 354.731 322.422 372.72 319.557C392.987 316.328 413.366 313.991 433.711 311.325C454.113 308.65 474.644 309.692 494.931 305.804C518.78 301.233 543.339 300.152 567.584 300.152" stroke="#E7E0E0" stroke-width="10" stroke-linecap="round"/>
<path d="M498.333 305.247C498.333 321.881 500.808 338.246 500.808 354.749" stroke="#E7E0E0" stroke-width="10" stroke-linecap="round"/>
<path d="M505.715 352.497C493.927 352.497 482.95 352.425 472.083 357.859C465.239 361.281 457.948 368.069 459.734 376.489C462.103 387.658 477.6 391.537 486.895 393.36C497.441 395.428 510.241 395.811 520.04 391.004C523.837 389.141 530.72 386.218 531.034 381.201C532.167 363.074 515.419 355.902 500.841 353.472" stroke="#E7E0E0" stroke-width="10" stroke-linecap="round"/>
<path d="M493.359 394.994C493.359 405.524 495.19 416.158 495.19 426.805C495.19 441.647 494.58 456.458 494.58 471.265C494.58 489.633 493.359 507.871 493.359 526.238" stroke="#E7E0E0" stroke-width="10" stroke-linecap="round"/>
<path d="M493.984 521.026C490.799 521.38 484.93 528.628 482.329 530.387C472.207 537.231 461.449 545.245 452.015 553.032C448.558 555.885 440.202 566.679 435.288 566.679" stroke="#E7E0E0" stroke-width="10" stroke-linecap="round"/>
<path d="M500.263 525.767C500.263 529.585 506.254 537.9 508.218 541.249C512.567 548.668 517.806 555.454 522.07 562.94C524.08 566.467 529.228 573.425 533.09 575.356" stroke="#E7E0E0" stroke-width="10" stroke-linecap="round"/>
</g>
</g>
</g>
</g>
</g>
</g>
</g>
<path d="M460.667 477.333C470.88 464.568 477.652 449.586 491.16 439.58C498.05 434.477 499.042 435.515 503.63 443.185C512.749 458.434 521.519 474.866 527.778 491.556" stroke="#D6D2D2" stroke-width="10" stroke-linecap="round"/>
</g>
</g>
<defs>
<clipPath id="clip0_2_2">
<rect width="612" height="792" fill="white"/>
</clipPath>
</defs>
</svg>
